<svg width="160" height="33" viewBox="0 0 160 33" fill="none" xmlns="http://www.w3.org/2000/svg">
<g clip-path="url(#clip0_1546_222)">
<path d="M5.5135 27C5.30017 27 5.10817 26.9253 4.9375 26.776C4.78817 26.6053 4.7135 26.4133 4.7135 26.2V14.552H2.2815C2.04683 14.552 1.85483 14.4773 1.7055 14.328C1.55617 14.1787 1.4815 13.9867 1.4815 13.752V11.16C1.4815 10.9253 1.55617 10.7333 1.7055 10.584C1.85483 10.4347 2.04683 10.36 2.2815 10.36H4.7135V9.336C4.7135 7.88533 4.99083 6.72267 5.5455 5.848C6.1215 4.952 6.93217 4.312 7.9775 3.928C9.02283 3.52267 10.2708 3.32 11.7215 3.32H14.2175C14.4522 3.32 14.6442 3.39467 14.7935 3.544C14.9428 3.69333 15.0175 3.88533 15.0175 4.12V6.712C15.0175 6.94667 14.9428 7.13867 14.7935 7.288C14.6442 7.43733 14.4522 7.512 14.2175 7.512H11.9775C11.2522 7.512 10.7402 7.68267 10.4415 8.024C10.1642 8.36533 10.0255 8.856 10.0255 9.496V10.36H13.8975C14.1322 10.36 14.3242 10.4347 14.4735 10.584C14.6228 10.7333 14.6975 10.9253 14.6975 11.16V13.752C14.6975 13.9867 14.6228 14.1787 14.4735 14.328C14.3242 14.4773 14.1322 14.552 13.8975 14.552H10.0255V26.2C10.0255 26.4133 9.95083 26.6053 9.8015 26.776C9.65217 26.9253 9.46017 27 9.2255 27H5.5135ZM21.755 27.32C20.603 27.32 19.5683 27.1067 18.651 26.68C17.755 26.232 17.0403 25.6347 16.507 24.888C15.9737 24.1413 15.707 23.2987 15.707 22.36C15.707 20.8453 16.3257 19.6507 17.563 18.776C18.8003 17.88 20.443 17.272 22.491 16.952L26.491 16.344V15.896C26.491 15.128 26.331 14.5413 26.011 14.136C25.691 13.7307 25.1043 13.528 24.251 13.528C23.6537 13.528 23.163 13.6453 22.779 13.88C22.4163 14.1147 22.1283 14.4347 21.915 14.84C21.723 15.1173 21.4563 15.256 21.115 15.256H17.531C17.2963 15.256 17.115 15.192 16.987 15.064C16.859 14.9147 16.8057 14.744 16.827 14.552C16.827 14.168 16.9657 13.7307 17.243 13.24C17.5417 12.728 17.9897 12.2267 18.587 11.736C19.1843 11.2453 19.9523 10.84 20.891 10.52C21.8297 10.2 22.971 10.04 24.315 10.04C25.6803 10.04 26.8537 10.2 27.835 10.52C28.8163 10.84 29.6163 11.288 30.235 11.864C30.8537 12.44 31.3017 13.1227 31.579 13.912C31.8777 14.68 32.027 15.5333 32.027 16.472V26.2C32.027 26.4133 31.9417 26.6053 31.771 26.776C31.6217 26.9253 31.4403 27 31.227 27H27.515C27.2803 27 27.0883 26.9253 26.939 26.776C26.7897 26.6053 26.715 26.4133 26.715 26.2V25.08C26.4377 25.4853 26.0643 25.8587 25.595 26.2C25.1257 26.5413 24.571 26.808 23.931 27C23.3123 27.2133 22.587 27.32 21.755 27.32ZM23.259 23.672C23.8777 23.672 24.4323 23.544 24.923 23.288C25.435 23.0107 25.8297 22.5947 26.107 22.04C26.4057 21.464 26.555 20.7493 26.555 19.896V19.448L23.835 19.928C22.8323 20.0987 22.0963 20.3653 21.627 20.728C21.179 21.0693 20.955 21.4747 20.955 21.944C20.955 22.3067 21.0617 22.616 21.275 22.872C21.4883 23.128 21.7657 23.3307 22.107 23.48C22.4697 23.608 22.8537 23.672 23.259 23.672ZM45.814 27.32C44.6407 27.32 43.6487 27.1173 42.838 26.712C42.0273 26.3067 41.366 25.7947 40.854 25.176V26.2C40.854 26.4133 40.7687 26.6053 40.598 26.776C40.4487 26.9253 40.2673 27 40.054 27H36.438C36.2033 27 36.0113 26.9253 35.862 26.776C35.7127 26.6053 35.638 26.4133 35.638 26.2V5.08C35.638 4.84533 35.7127 4.65333 35.862 4.504C36.0113 4.35467 36.2033 4.28 36.438 4.28H40.342C40.5767 4.28 40.7687 4.35467 40.918 4.504C41.0673 4.65333 41.142 4.84533 41.142 5.08V11.928C41.6753 11.3733 42.326 10.9253 43.094 10.584C43.862 10.2213 44.7687 10.04 45.814 10.04C46.8807 10.04 47.8193 10.2213 48.63 10.584C49.462 10.9253 50.166 11.4267 50.742 12.088C51.318 12.728 51.766 13.5173 52.086 14.456C52.406 15.3733 52.5873 16.3973 52.63 17.528C52.6513 17.9547 52.662 18.3387 52.662 18.68C52.662 19 52.6513 19.3733 52.63 19.8C52.5873 20.9947 52.406 22.0613 52.086 23C51.766 23.9173 51.3073 24.7067 50.71 25.368C50.134 26.008 49.4407 26.4987 48.63 26.84C47.8193 27.16 46.8807 27.32 45.814 27.32ZM44.086 23.032C44.8113 23.032 45.3767 22.8827 45.782 22.584C46.1873 22.2853 46.4753 21.88 46.646 21.368C46.838 20.856 46.9553 20.2907 46.998 19.672C47.0407 19.0107 47.0407 18.3493 46.998 17.688C46.9553 17.0693 46.838 16.504 46.646 15.992C46.4753 15.48 46.1873 15.0747 45.782 14.776C45.3767 14.4773 44.8113 14.328 44.086 14.328C43.4247 14.328 42.8807 14.4773 42.454 14.776C42.0273 15.0533 41.7073 15.4267 41.494 15.896C41.2807 16.344 41.1633 16.8347 41.142 17.368C41.1207 17.7733 41.11 18.168 41.11 18.552C41.11 18.936 41.1207 19.3413 41.142 19.768C41.1847 20.344 41.302 20.8773 41.494 21.368C41.686 21.8587 41.9953 22.264 42.422 22.584C42.8487 22.8827 43.4033 23.032 44.086 23.032ZM59.9968 27C59.6768 27 59.4421 26.9253 59.2928 26.776C59.1434 26.6053 59.0261 26.4133 58.9408 26.2L54.3328 11.384C54.2901 11.2773 54.2688 11.1707 54.2688 11.064C54.2688 10.872 54.3434 10.712 54.4928 10.584C54.6421 10.4347 54.8128 10.36 55.0048 10.36H58.3008C58.5781 10.36 58.7914 10.4347 58.9408 10.584C59.1114 10.7333 59.2181 10.8827 59.2608 11.032L61.9488 20.184L64.8288 11.064C64.8714 10.9147 64.9674 10.7653 65.1168 10.616C65.2874 10.4453 65.5221 10.36 65.8208 10.36H67.9328C68.2314 10.36 68.4661 10.4453 68.6368 10.616C68.8074 10.7653 68.9034 10.9147 68.9248 11.064L71.8048 20.184L74.4928 11.032C74.5354 10.8827 74.6314 10.7333 74.7808 10.584C74.9514 10.4347 75.1754 10.36 75.4528 10.36H78.7488C78.9408 10.36 79.1114 10.4347 79.2608 10.584C79.4101 10.712 79.4848 10.872 79.4848 11.064C79.4848 11.1707 79.4634 11.2773 79.4208 11.384L74.8128 26.2C74.7488 26.4133 74.6314 26.6053 74.4608 26.776C74.3114 26.9253 74.0768 27 73.7568 27H70.8768C70.5781 27 70.3434 26.9253 70.1728 26.776C70.0021 26.6053 69.8848 26.4133 69.8208 26.2L66.8768 17.432L63.9328 26.2C63.8688 26.4133 63.7514 26.6053 63.5808 26.776C63.4101 26.9253 63.1754 27 62.8767 27H59.9968ZM89.5725 27.32C87.7805 27.32 86.2658 27.032 85.0285 26.456C83.8125 25.88 82.8738 25.0587 82.2125 23.992C81.5725 22.904 81.2098 21.6133 81.1245 20.12C81.1032 19.6933 81.0925 19.2133 81.0925 18.68C81.0925 18.1253 81.1032 17.6453 81.1245 17.24C81.2098 15.7253 81.5938 14.4347 82.2765 13.368C82.9592 12.3013 83.9085 11.48 85.1245 10.904C86.3618 10.328 87.8445 10.04 89.5725 10.04C91.3218 10.04 92.8045 10.328 94.0205 10.904C95.2578 11.48 96.2178 12.3013 96.9005 13.368C97.5832 14.4347 97.9672 15.7253 98.0525 17.24C98.0738 17.6453 98.0845 18.1253 98.0845 18.68C98.0845 19.2133 98.0738 19.6933 98.0525 20.12C97.9672 21.6133 97.5938 22.904 96.9325 23.992C96.2925 25.0587 95.3538 25.88 94.1165 26.456C92.9005 27.032 91.3858 27.32 89.5725 27.32ZM89.5725 23.416C90.5325 23.416 91.2258 23.128 91.6525 22.552C92.1005 21.976 92.3565 21.112 92.4205 19.96C92.4418 19.64 92.4525 19.2133 92.4525 18.68C92.4525 18.1467 92.4418 17.72 92.4205 17.4C92.3565 16.2693 92.1005 15.416 91.6525 14.84C91.2258 14.2427 90.5325 13.944 89.5725 13.944C88.6552 13.944 87.9618 14.2427 87.4925 14.84C87.0445 15.416 86.7992 16.2693 86.7565 17.4C86.7352 17.72 86.7245 18.1467 86.7245 18.68C86.7245 19.2133 86.7352 19.64 86.7565 19.96C86.7992 21.112 87.0445 21.976 87.4925 22.552C87.9618 23.128 88.6552 23.416 89.5725 23.416ZM102.063 27C101.828 27 101.636 26.9253 101.487 26.776C101.338 26.6053 101.263 26.4133 101.263 26.2V11.16C101.263 10.9467 101.338 10.7653 101.487 10.616C101.636 10.4453 101.828 10.36 102.063 10.36H105.743C105.978 10.36 106.17 10.4453 106.319 10.616C106.49 10.7653 106.575 10.9467 106.575 11.16V12.44C107.13 11.7787 107.802 11.2667 108.591 10.904C109.402 10.5413 110.308 10.36 111.311 10.36H112.719C112.954 10.36 113.146 10.4347 113.295 10.584C113.444 10.7333 113.519 10.9253 113.519 11.16V14.456C113.519 14.6693 113.444 14.8613 113.295 15.032C113.146 15.1813 112.954 15.256 112.719 15.256H109.615C108.74 15.256 108.058 15.5013 107.567 15.992C107.098 16.4613 106.863 17.1333 106.863 18.008V26.2C106.863 26.4133 106.778 26.6053 106.607 26.776C106.458 26.9253 106.266 27 106.031 27H102.063ZM116.594 27C116.36 27 116.168 26.9253 116.018 26.776C115.869 26.6053 115.794 26.4133 115.794 26.2V5.08C115.794 4.84533 115.869 4.65333 116.018 4.504C116.168 4.35467 116.36 4.28 116.594 4.28H120.306C120.52 4.28 120.701 4.35467 120.85 4.504C121.021 4.65333 121.106 4.84533 121.106 5.08V15.8L125.554 10.904C125.682 10.7547 125.821 10.6267 125.97 10.52C126.12 10.4133 126.333 10.36 126.61 10.36H130.898C131.09 10.36 131.25 10.4347 131.378 10.584C131.528 10.712 131.602 10.872 131.602 11.064C131.602 11.1493 131.581 11.2453 131.538 11.352C131.517 11.4587 131.453 11.544 131.346 11.608L125.586 17.816L132.146 25.784C132.317 25.9547 132.402 26.1147 132.402 26.264C132.402 26.4773 132.328 26.6587 132.178 26.808C132.05 26.936 131.88 27 131.666 27H127.282C126.962 27 126.728 26.9467 126.578 26.84C126.429 26.712 126.29 26.584 126.162 26.456L121.106 20.376V26.2C121.106 26.4133 121.021 26.6053 120.85 26.776C120.701 26.9253 120.52 27 120.306 27H116.594ZM141.017 27.32C139.631 27.32 138.447 27.1707 137.465 26.872C136.505 26.552 135.716 26.168 135.097 25.72C134.5 25.272 134.052 24.8133 133.753 24.344C133.455 23.8533 133.295 23.4267 133.273 23.064C133.252 22.8293 133.327 22.6373 133.497 22.488C133.668 22.3387 133.849 22.264 134.041 22.264H137.689C137.753 22.264 137.807 22.2747 137.849 22.296C137.913 22.3173 137.977 22.36 138.041 22.424C138.319 22.5733 138.596 22.7653 138.873 23C139.151 23.2133 139.471 23.4053 139.833 23.576C140.196 23.7467 140.633 23.832 141.145 23.832C141.743 23.832 142.244 23.7147 142.649 23.48C143.055 23.224 143.257 22.872 143.257 22.424C143.257 22.0827 143.161 21.8053 142.969 21.592C142.777 21.3573 142.383 21.1333 141.785 20.92C141.209 20.7067 140.335 20.4933 139.161 20.28C138.052 20.024 137.081 19.6933 136.249 19.288C135.417 18.8613 134.777 18.3173 134.329 17.656C133.881 16.9733 133.657 16.152 133.657 15.192C133.657 14.3387 133.935 13.5173 134.489 12.728C135.044 11.9387 135.855 11.2987 136.921 10.808C137.988 10.296 139.311 10.04 140.889 10.04C142.105 10.04 143.172 10.1893 144.089 10.488C145.007 10.7653 145.775 11.128 146.393 11.576C147.012 12.024 147.481 12.4827 147.801 12.952C148.121 13.4213 148.292 13.848 148.313 14.232C148.335 14.4453 148.271 14.6373 148.121 14.808C147.972 14.9573 147.801 15.032 147.609 15.032H144.281C144.196 15.032 144.111 15.0213 144.025 15C143.94 14.9573 143.865 14.9147 143.801 14.872C143.545 14.744 143.289 14.5733 143.033 14.36C142.777 14.1467 142.479 13.9547 142.137 13.784C141.796 13.6133 141.369 13.528 140.857 13.528C140.281 13.528 139.833 13.656 139.513 13.912C139.193 14.168 139.033 14.4987 139.033 14.904C139.033 15.1813 139.119 15.4373 139.289 15.672C139.481 15.9067 139.855 16.12 140.409 16.312C140.985 16.504 141.871 16.7173 143.065 16.952C144.537 17.1867 145.711 17.5707 146.585 18.104C147.46 18.616 148.079 19.224 148.441 19.928C148.825 20.6107 149.017 21.336 149.017 22.104C149.017 23.128 148.708 24.0347 148.089 24.824C147.471 25.6133 146.564 26.232 145.369 26.68C144.196 27.1067 142.745 27.32 141.017 27.32Z" fill="white"/>
<path d="M152.497 27C152.262 27 152.07 26.9253 151.921 26.776C151.771 26.6053 151.697 26.4133 151.697 26.2V22.136C151.697 21.9013 151.771 21.7093 151.921 21.56C152.07 21.4107 152.262 21.336 152.497 21.336H156.561C156.774 21.336 156.955 21.4107 157.105 21.56C157.275 21.7093 157.361 21.9013 157.361 22.136V26.2C157.361 26.4133 157.275 26.6053 157.105 26.776C156.955 26.9253 156.774 27 156.561 27H152.497Z" fill="#3E5DFC"/>
</g>
<defs>
<clipPath id="clip0_1546_222">
<rect width="160" height="33" fill="white"/>
</clipPath>
</defs>
</svg>
